<svg width="500" height="639" viewBox="0 0 500 639" fill="none" xmlns="http://www.w3.org/2000/svg">
<path fill-rule="evenodd" clip-rule="evenodd" d="M25.6356 497.838C9.7287 488.108 0 470.782 0 452.176V348.282C0 344.306 1.06511 340.471 3.05363 337.063C9.23162 326.412 22.9371 322.79 33.5888 329.038L268.073 465.739C281.778 473.763 290.229 488.393 290.229 504.3V611.957C290.229 616.856 288.879 621.757 286.322 625.947C278.583 638.587 262.108 642.563 249.468 634.824L25.6356 497.838ZM375.158 300.563C388.865 308.587 397.316 323.215 397.316 339.122V557.561C397.316 564.022 393.836 569.988 388.225 573.113L336.883 602.015C336.245 602.37 335.534 602.655 334.824 602.866V481.577C334.824 465.883 326.587 451.325 313.093 443.229L107.158 320.02V183.105C107.158 179.128 108.223 175.294 110.211 171.885C116.39 161.233 130.095 157.611 140.747 163.86L375.158 300.563ZM477.773 139.219C491.549 147.172 500 161.943 500 177.85V496.916C500 503.447 496.379 509.484 490.626 512.61L441.983 538.883V316.753C441.983 301.059 433.746 286.573 420.324 278.477L209.843 152.214V22.3301C209.843 18.3533 210.907 14.5186 212.825 11.1099C219.003 0.457831 232.708 -3.16386 243.361 3.01432L477.773 139.219Z" fill="#818da4"/>
</svg>
